<svg width="187" height="180" viewBox="0 0 187 180" fill="none" xmlns="http://www.w3.org/2000/svg">
<path d="M122 179.5H16.9999C8.99993 179.5 6.49993 177 5.99993 171L1.49993 108.5C1 102 5 100.5 11.9999 100.5H15.4999M122 179.5C128 179.5 129.5 177.5 129 173L124.5 111.5C124 104 121.5 100.5 114 100.5H15.4999M122 179.5C128.5 179.5 131.5 178 132 173L136.5 92.5005C136.5 89.5005 134.5 87.5005 131 87.5005H61.4999V83.5005C61.4999 80.0005 59.4999 78.5005 56.9999 78.5005H22.4999C19.4999 78.5004 17.4999 79 16.9999 82.5005L15.4999 100.5" stroke="currentColor"/>
<circle cx="40" cy="146" r="4" fill="currentColor"/>
<circle cx="78" cy="146" r="4" fill="currentColor"/>
<rect x="48" y="162" width="23" height="3" fill="currentColor"/>
<path d="M72.5 95.5C81 69 95 61.5 118.5 70C143.5 79.0426 160 66 153.5 44.5C151.5 35 152.071 32.088 160 26" stroke="currentColor" stroke-dasharray="12 12"/>
<path d="M179.237 8.61346C181.254 7.7016 182.153 7.87126 183.456 9.06929M180.482 6.96989C181.046 6.2145 181.022 5.80906 180.32 5.17437M165.996 19.2738C167.573 24.4228 170.385 24.7267 173.026 20.0336C182.867 21.0966 185.812 13.5925 177.68 9.86822C175.779 1.12789 167.818 2.40084 166.755 12.2437C161.606 13.821 161.303 16.6331 165.996 19.2738Z" stroke="currentColor"/>
</svg>
