<svg width="32" height="32" viewBox="0 0 32 32" fill="none" xmlns="http://www.w3.org/2000/svg">
<path d="M17.3333 11.3333H12C9.42266 11.3333 7.33333 9.244 7.33333 6.66667C7.33333 4.08933 9.42266 2 12 2H17.3333V11.3333Z" fill="#E64A19"/>
<path d="M16.6667 20.6666H12C9.42266 20.6666 7.33333 18.5773 7.33333 15.9999C7.33333 13.4226 9.42266 11.3333 12 11.3333H16.6667V20.6666Z" fill="#7C4DFF"/>
<path d="M12 30.0001C9.42266 30.0001 7.33333 27.9107 7.33333 25.3334C7.33333 22.7561 9.42266 20.6667 12 20.6667H16.6667V25.3334C16.6667 27.9107 14.5773 30.0001 12 30.0001Z" fill="#66BB6A"/>
<path d="M21.3333 11.3333H16.6667V2H21.3333C23.9107 2 26 4.08933 26 6.66667C26 9.244 23.9107 11.3333 21.3333 11.3333Z" fill="#FF7043"/>
<path d="M21.3333 20.6666C23.9107 20.6666 26 18.5772 26 15.9999C26 13.4226 23.9107 11.3333 21.3333 11.3333C18.756 11.3333 16.6667 13.4226 16.6667 15.9999C16.6667 18.5772 18.756 20.6666 21.3333 20.6666Z" fill="#29B6F6"/>
</svg>
