<svg width="32" height="32" viewBox="0 0 32 32" fill="none" xmlns="http://www.w3.org/2000/svg">
<rect width="32" height="32" rx="10" fill="#EEEEEE"/>
<path d="M19.3333 12.6667C20.6594 12.6667 21.9312 13.1935 22.8689 14.1312C23.8065 15.0688 24.3333 16.3406 24.3333 17.6667V23.5H21V17.6667C21 17.2247 20.8244 16.8007 20.5118 16.4882C20.1993 16.1756 19.7754 16 19.3333 16C18.8913 16 18.4674 16.1756 18.1548 16.4882C17.8423 16.8007 17.6667 17.2247 17.6667 17.6667V23.5H14.3333V17.6667C14.3333 16.3406 14.8601 15.0688 15.7978 14.1312C16.7355 13.1935 18.0072 12.6667 19.3333 12.6667Z" stroke="#1E1E1E" stroke-linecap="round" stroke-linejoin="round"/>
<path d="M11 13.5H7.66666V23.5H11V13.5Z" stroke="#1E1E1E" stroke-linecap="round" stroke-linejoin="round"/>
<path d="M9.33332 11C10.2538 11 11 10.2538 11 9.33335C11 8.41288 10.2538 7.66669 9.33332 7.66669C8.41285 7.66669 7.66666 8.41288 7.66666 9.33335C7.66666 10.2538 8.41285 11 9.33332 11Z" stroke="#1E1E1E" stroke-linecap="round" stroke-linejoin="round"/>
</svg>
