<svg width="32" height="32" viewBox="0 0 32 32" fill="none" xmlns="http://www.w3.org/2000/svg">
<path d="M28 11.5334C28 25.2001 16 29.3334 16 29.3334C16 29.3334 4 25.2001 4 11.5334C4 9.86675 4.13333 8.46675 4.26667 7.33342C4.46667 5.66675 5.6 4.33341 7.2 3.93341C9.26667 3.33341 12.5333 2.66675 16 2.66675C19.4667 2.66675 22.7333 3.33341 24.8667 3.93341C26.4667 4.33341 27.6 5.73341 27.8 7.33342C27.8667 8.46675 28 9.93341 28 11.5334Z" fill="#5D4037"/>
<path d="M16 4.66675C19.2667 4.66675 22.3333 5.33342 24.3333 5.86675C25.1333 6.06675 25.6667 6.73341 25.8 7.60008C25.9333 8.86675 26 10.2001 26 11.5334C26 21.9334 18.3333 26.1334 16 27.1334C13.6667 26.0667 6 21.8667 6 11.5334C6 10.2001 6.06667 8.86675 6.2 7.60008C6.26667 6.73341 6.86667 6.06675 7.66667 5.86675C9.66667 5.33342 12.7333 4.66675 16 4.66675ZM16 2.66675C12.5333 2.66675 9.26667 3.33341 7.13333 3.93341C5.6 4.33341 4.4 5.73341 4.26667 7.33342C4.13333 8.46675 4 9.93341 4 11.5334C4 25.2001 16 29.3334 16 29.3334C16 29.3334 28 25.2001 28 11.5334C28 9.86675 27.8667 8.46675 27.7333 7.33342C27.5333 5.66675 26.4 4.33341 24.8 3.93341C22.7333 3.33341 19.4667 2.66675 16 2.66675Z" fill="#4CAF50"/>
<path d="M15.3333 18.6667H16.6666V24.0001H15.3333V18.6667Z" fill="#DCEDC8"/>
<path d="M16 6.66675C16 6.66675 12 10.0001 12 15.3334C12 18.8001 14.2 21.0001 15.3333 22.0001L16 20.0001L16.6667 22.0001C17.8 21.0001 20 18.8001 20 15.3334C20 10.0001 16 6.66675 16 6.66675Z" fill="#4CAF50"/>
<path d="M16 6.66675C16 6.66675 12 10.0001 12 15.3334C12 18.8001 14.2 21.0001 15.3333 22.0001L16 20.0001V6.66675Z" fill="#81C784"/>
</svg>
