<svg width="32" height="32" viewBox="0 0 32 32" fill="none" xmlns="http://www.w3.org/2000/svg">
<path d="M16.0046 30.2792C15.622 30.2792 15.2426 30.1792 14.9073 29.9859L11.414 27.9172C10.892 27.6252 11.1466 27.5219 11.3186 27.4625C12.0146 27.2192 12.1553 27.1639 12.898 26.7419C12.976 26.6972 13.078 26.7132 13.158 26.7605L15.842 28.3532C15.9386 28.4059 16.0766 28.4059 16.166 28.3532L26.6306 22.3125C26.7273 22.2572 26.7906 22.1452 26.7906 22.0299V9.95455C26.7906 9.83388 26.728 9.72655 26.6286 9.66655L16.1686 3.63055C16.072 3.57321 15.9433 3.57321 15.8466 3.63055L5.38798 9.66588C5.28665 9.72321 5.22198 9.83588 5.22198 9.95122V22.0272C5.22198 22.1425 5.28465 22.2525 5.38465 22.3072L8.25065 23.9625C9.80665 24.7405 10.7573 23.8239 10.7573 22.9019V10.9839C10.7573 10.8139 10.8906 10.6825 11.0613 10.6825H12.3866C12.552 10.6825 12.688 10.8132 12.688 10.9839V22.9079C12.688 24.9825 11.5566 26.1745 9.58931 26.1745C8.98398 26.1745 8.50731 26.1745 7.17665 25.5199L4.43131 23.9379C3.75265 23.5445 3.33331 22.8105 3.33331 22.0279V9.95188C3.33331 9.16588 3.75265 8.43255 4.43065 8.04455L14.9066 2.00121C15.5693 1.62655 16.4493 1.62655 17.1073 2.00121L27.57 8.04722C28.2446 8.43722 28.6666 9.16855 28.6666 9.95455V22.0306C28.6666 22.8139 28.2446 23.5445 27.5693 23.9379L17.1066 29.9805C16.7713 30.1745 16.3913 30.2739 16.004 30.2739" fill="#21A366"/>
<path d="M19.2373 21.958C14.6587 21.958 13.6987 19.856 13.6987 18.0933C13.6987 17.926 13.834 17.792 14.002 17.792H15.354C15.5033 17.792 15.6293 17.9007 15.6527 18.048C15.8567 19.4253 16.4647 20.12 19.2333 20.12C21.4387 20.12 22.3767 19.622 22.3767 18.452C22.3767 17.7787 22.1093 17.2787 18.6833 16.9433C15.8173 16.6607 14.0467 16.0293 14.0467 13.7373C14.0467 11.626 15.828 10.3687 18.8113 10.3687C22.162 10.3687 23.8227 11.532 24.032 14.0307C24.04 14.1173 24.0087 14.2007 23.9507 14.264C23.8933 14.324 23.812 14.3607 23.728 14.3607H22.3687C22.2273 14.3607 22.104 14.2613 22.0753 14.1247C21.748 12.676 20.9567 12.2127 18.806 12.2127C16.3987 12.2127 16.1187 13.0507 16.1187 13.6793C16.1187 14.4413 16.4487 14.664 19.6967 15.094C22.9133 15.5207 24.4407 16.1233 24.4407 18.384C24.4407 20.6627 22.5387 21.97 19.2227 21.97" fill="#21A366"/>
</svg>
