<svg width="32" height="32" viewBox="0 0 32 32" fill="none" xmlns="http://www.w3.org/2000/svg">
<path d="M16.0313 3.3333C14.9947 3.33663 14.276 3.42797 13.4073 3.57797C10.842 4.02463 10.3747 4.96263 10.3747 6.6913V9.3333H16.3747V10.6666H10.1467H7.24665C5.48932 10.6666 3.95132 11.4946 3.46399 13.4793C2.91332 15.7573 2.88865 17.184 3.46399 19.5626C3.90065 21.3366 4.86265 22.6666 6.62065 22.6666H9.04199V19.264C9.04199 17.2866 10.8327 15.3333 12.8847 15.3333H17.7087C19.3907 15.3333 21.042 14.092 21.042 12.4153V6.6913C21.042 5.0653 19.8693 3.8493 18.23 3.57663C18.2707 3.57263 17.0593 3.3293 16.0313 3.3333ZM12.7087 5.99997C13.256 5.99997 13.7087 6.4513 13.7087 7.0013C13.7087 7.55663 13.256 7.99997 12.7087 7.99997C12.1507 7.99997 11.7087 7.5573 11.7087 7.0013C11.7087 6.4533 12.1507 5.99997 12.7087 5.99997Z" fill="#0277BD"/>
<path d="M15.3854 28.6666C16.422 28.6633 17.1407 28.5719 18.0094 28.4219C20.5747 27.9753 21.042 27.0373 21.042 25.3086V22.6666H15.042V21.3333H21.2707H24.1707C25.928 21.3333 27.466 20.5053 27.9534 18.5206C28.504 16.2426 28.5287 14.8159 27.9534 12.4373C27.516 10.6633 26.554 9.33325 24.796 9.33325H22.3747V12.7359C22.3747 14.7133 20.584 16.6666 18.532 16.6666H13.708C12.026 16.6666 10.3747 17.9079 10.3747 19.5846V25.3086C10.3747 26.9346 11.5474 28.1506 13.1867 28.4233C13.146 28.4273 14.3574 28.6706 15.3854 28.6666ZM18.7087 25.9999C18.1614 25.9999 17.7087 25.5486 17.7087 24.9986C17.7087 24.4433 18.1614 23.9999 18.7087 23.9999C19.2667 23.9999 19.7087 24.4426 19.7087 24.9986C19.7087 25.5466 19.266 25.9999 18.7087 25.9999Z" fill="#FFC107"/>
</svg>
