<svg width="32" height="32" viewBox="0 0 32 32" fill="none" xmlns="http://www.w3.org/2000/svg">
<path d="M16 22.6666C7.40001 22.6666 0.666672 19.7333 0.666672 15.9999C0.666672 12.2666 7.40001 9.33325 16 9.33325C24.6 9.33325 31.3333 12.2666 31.3333 15.9999C31.3333 19.7333 24.6 22.6666 16 22.6666ZM16 10.6666C7.60001 10.6666 2.00001 13.3999 2.00001 15.9999C2.00001 18.5999 7.60001 21.3333 16 21.3333C24.4 21.3333 30 18.5999 30 15.9999C30 13.3999 24.4 10.6666 16 10.6666Z" fill="#80DEEA"/>
<path d="M10.0667 29.7334C9.4 29.7334 8.86666 29.6001 8.33333 29.2667C5.06666 27.4001 5.93333 20.1334 10.2 12.6667C12.2 9.20006 14.6667 6.26672 17.0667 4.40006C19.6667 2.40006 22 1.80006 23.6 2.73339C25.2667 3.66672 25.8667 6.00006 25.4667 9.26672C25.0667 12.3334 23.7333 15.9334 21.7333 19.4001C19.7333 22.8667 17.2667 25.8001 14.8667 27.6667C13.1333 29.0001 11.4667 29.7334 10.0667 29.7334ZM21.9333 3.60006C20.8667 3.60006 19.4667 4.20006 17.9333 5.40006C15.6667 7.20006 13.3333 10.0001 11.4 13.3334C7.2 20.6001 6.8 26.8667 9 28.1334C10.1333 28.8001 12 28.2001 14.0667 26.6001C16.3333 24.8001 18.6667 22.0001 20.6 18.6667C22.5333 15.3334 23.8 11.9334 24.2 9.06672C24.5333 6.40006 24.1333 4.53339 23 3.86672C22.6667 3.73339 22.3333 3.60006 21.9333 3.60006Z" fill="#80DEEA"/>
<path d="M22 29.7334C18.6667 29.7334 13.8667 25.6667 10.2667 19.3334C5.93333 11.8667 5.06667 4.60005 8.33333 2.73338C11.6 0.866714 17.4667 5.20005 21.8 12.6667C23.8 16.1334 25.1333 19.7334 25.5333 22.8C26 26.0667 25.3333 28.3334 23.6667 29.3334C23.1333 29.6 22.6 29.7334 22 29.7334ZM9 3.86671C6.8 5.13338 7.2 11.4 11.4 18.6667C15.6 25.9334 20.8 29.4 23 28.1334C24.1333 27.4667 24.5333 25.6 24.2 22.9334C23.8 20.0667 22.5333 16.6667 20.6 13.3334C16.4 6.06671 11.2 2.60005 9 3.86671Z" fill="#80DEEA"/>
<path d="M16 18.6666C17.4728 18.6666 18.6667 17.4727 18.6667 15.9999C18.6667 14.5272 17.4728 13.3333 16 13.3333C14.5272 13.3333 13.3333 14.5272 13.3333 15.9999C13.3333 17.4727 14.5272 18.6666 16 18.6666Z" fill="#80DEEA"/>
</svg>
