<svg width="32" height="32" viewBox="0 0 32 32" fill="none" xmlns="http://www.w3.org/2000/svg">
<path d="M16 6C11.7333 6 9.06667 8.13267 8 12.398C9.6 10.2653 11.4667 9.466 13.6 9.99867C14.8173 10.3027 15.6873 11.186 16.6507 12.1633C18.2187 13.7547 20.034 15.5973 24 15.5973C28.2667 15.5973 30.9333 13.4647 32 9.19867C30.4 11.3313 28.5333 12.1313 26.4 11.5987C25.1833 11.2947 24.3133 10.4113 23.35 9.434C21.7813 7.842 19.9653 6 16 6ZM8 15.5973C3.73333 15.5973 1.06667 17.73 0 21.996C1.6 19.8633 3.46667 19.0633 5.6 19.5967C6.81667 19.9013 7.68667 20.784 8.65 21.7607C10.2187 23.3527 12.0347 25.1953 16 25.1953C20.2667 25.1953 22.9333 23.0627 24 18.7967C22.4 20.9293 20.5333 21.7293 18.4 21.196C17.1827 20.892 16.3127 20.0087 15.3493 19.032C13.7813 17.44 11.966 15.5973 8 15.5973Z" fill="#00ACC1"/>
</svg>
