<svg width="32" height="32" viewBox="0 0 32 32" fill="none" xmlns="http://www.w3.org/2000/svg">
<rect width="32" height="32" rx="10" fill="#EEEEEE"/>
<path d="M25.1667 8.50002C24.3686 9.06292 23.4851 9.49344 22.55 9.77502C22.0481 9.19794 21.3811 8.78893 20.6392 8.60329C19.8973 8.41765 19.1162 8.46435 18.4017 8.73706C17.6872 9.00978 17.0737 9.49535 16.6441 10.1281C16.2146 10.7609 15.9897 11.5103 16 12.275V13.1084C14.5355 13.1463 13.0844 12.8215 11.7758 12.1629C10.4673 11.5043 9.34193 10.5322 8.49999 9.33335C8.49999 9.33335 5.16666 16.8334 12.6667 20.1667C10.9504 21.3317 8.90596 21.9158 6.83333 21.8334C14.3333 26 23.5 21.8334 23.5 12.25C23.4992 12.0179 23.4769 11.7863 23.4333 11.5584C24.2838 10.7196 24.884 9.66061 25.1667 8.50002Z" stroke="#1E1E1E" stroke-linecap="round" stroke-linejoin="round"/>
</svg>
